<?xml version="1.0" encoding="utf-8"?>
<!-- Generator: Adobe Illustrator 24.3.0, SVG Export Plug-In . SVG Version: 6.00 Build 0)  -->
<svg version="1.1" id="Layer_1" xmlns="http://www.w3.org/2000/svg" xmlns:xlink="http://www.w3.org/1999/xlink" x="0px" y="0px"
	 viewBox="0 0 2000 2000" style="enable-background:new 0 0 2000 2000;" xml:space="preserve">
<style type="text/css">
	.st0{fill:#FBB800;}
	.st1{fill:#FFFFFF;}
	.st2{fill:#1C1F24;}
</style>
<g>
	<path class="st0" d="M356.96,965.42c5.36-17.73,14.34-33.89,26.09-47.61c-19.69-16.9-45.26-27.11-73.18-27.11H196.95v52.14h112.92
		C328.88,942.83,345.87,951.65,356.96,965.42z"/>
	<path class="st2" d="M435.85,1041.21c-5.07,16.83-13.51,32.59-24.88,46.24c-0.4,0.47-0.78,0.95-1.21,1.42
		c19.69,16.9,45.29,27.11,73.23,27.11h86.85v-52.14h-86.85C463.96,1063.84,446.95,1055,435.85,1041.21z"/>
	<path class="st2" d="M743.27,890.7v52.14H569.85v-0.01h-86.86c-19.03,0-36.05,8.84-47.14,22.64
		c-8.36,10.37-13.37,23.56-13.37,37.87c0,27.34-9.78,52.45-26.07,71.97c-4.05,4.89-8.53,9.44-13.37,13.56
		c-19.69,16.9-45.26,27.11-73.17,27.11H196.95V983h52.14v80.84h60.79c19,0,35.99-8.82,47.08-22.59
		c8.39-10.37,13.39-23.58,13.39-37.91c0-27.34,9.79-52.45,26.07-71.97c4.05-4.86,8.49-9.38,13.3-13.51
		c19.71-16.91,45.32-27.15,73.28-27.15H743.27z"/>
	<polygon class="st2" points="642.34,977.27 590.2,977.27 590.2,1115.97 642.34,1115.97 642.34,1029.41 695.87,1029.41 
		695.87,977.27 642.34,977.27 	"/>
	<g>
		<g>
			<rect x="782.89" y="860.48" class="st2" width="5.96" height="279.04"/>
		</g>
	</g>
	<g>
		<g>
			<g>
				<path class="st2" d="M850.65,896.24h42.41c44,0,63.61,29.34,63.61,54.37v3.19c0,24.71-20.25,54.05-63.61,54.05h-42.41V896.24z
					 M932.44,952.2c0-20.57-14.03-34.76-37.95-34.76h-19.93v69.19h19.93C918.25,986.64,932.44,971.17,932.44,952.2z"/>
				<path class="st2" d="M964.64,928.12h24.08v9.73c6.22-7.49,14.03-11.96,26.63-11.96h4.46v19.77h-9.88
					c-14.99,0-21.05,4.94-21.05,18.33v43.84h-24.23V928.12z"/>
				<path class="st2" d="M1022.04,969.42v-2.55c0-20.41,15.62-41.45,45.92-41.45c30.45,0,46.08,21.05,46.08,41.45
					c0,2.39,0.16,3.99-0.16,6.38h-67.44c1.75,11.16,9.41,17.7,21.68,17.86c9.88-0.16,16.74-4.62,19.93-12.44h24.87
					c-3.83,16.74-18.65,32.05-44.8,32.21C1037.02,1010.71,1022.04,989.35,1022.04,969.42z M1067.96,945.18
					c-10.2,0-17.38,4.62-20.25,12.91h40.66C1085.33,949.81,1078.32,945.18,1067.96,945.18z"/>
				<path class="st2" d="M1119.77,982.65c0-17.54,14.03-27.42,38.42-27.42h16.1c-0.8-5.9-4.78-7.49-12.6-7.49l-32.36-0.16v-19.45
					h27.42c27.58,0,41.13,7.81,41.13,30.45v49.27h-21.05v-3.99c-5.58,4.3-13.07,6.38-22.48,6.38
					C1133.32,1010.23,1119.77,1000.19,1119.77,982.65z M1174.46,977.39v-4.3h-16.9c-9.41,0-14.03,3.83-14.03,9.57
					s4.62,9.25,14.03,9.25C1165.37,991.9,1174.46,988.87,1174.46,977.39z"/>
				<path class="st2" d="M1206.82,928.28h23.6v9.41c3.35-5.26,15.15-11.8,22.64-11.8h0.48c11.96,0,20.89,4.15,26.47,12.12
					c5.74-7.81,14.83-12.12,26.78-12.12h0.64c22,0,33.8,13.71,33.8,37.31v44.8h-24.23v-47.67c0-8.77-4.94-14.35-14.03-14.35
					c-9.57,0-15.62,5.26-15.62,15.15V1008h-21.37l0.16-47.35c0-9.73-7.81-14.67-17.06-14.67c-10.36,0-18.33,4.31-18.33,15.15V1008
					h-23.92V928.28z"/>
				<path class="st2" d="M1376.22,953.63v-3.19c0-26.63,19.77-56.92,61.54-56.92c36.67,0,56.6,23.44,60.75,47.03h-24.87
					c-4.3-15.46-17.54-25.83-35.87-25.83c-22.48,0-37.31,15.94-37.31,37.47c0,20.25,14.51,37.47,37.31,37.47
					c18.34,0,31.41-11,35.71-25.99h25.03c-4.46,23.28-24.55,47.35-60.75,47.35C1396.3,1011.03,1376.22,979.46,1376.22,953.63z"/>
				<path class="st2" d="M1506.47,969.42v-2.55c0-20.41,15.62-41.45,45.92-41.45c30.45,0,46.08,21.05,46.08,41.45v2.55
					c0,19.93-14.99,41.29-45.92,41.45C1521.45,1010.71,1506.47,989.35,1506.47,969.42z M1574.39,968.14c0-14.51-7.97-22.96-22-22.96
					c-13.87,0-21.84,8.45-21.84,22.96c0,14.19,7.97,22.8,22,22.96C1566.41,990.94,1574.39,982.33,1574.39,968.14z"/>
				<path class="st2" d="M1606.43,968.78v-3.03c0-22.64,18.33-41.93,44.64-41.93c9.25,0,19.93,2.39,27.9,11.48v-39.06h24.07v111.6
					h-24.07v-7.49c-5.58,6.54-19.61,10.36-27.9,10.36C1624.77,1010.71,1606.43,991.42,1606.43,968.78z M1676.42,969.9v-5.26
					c0-12.44-9.41-20.73-22.64-20.73c-11,0-23.28,5.9-23.28,23.6c0,14.19,9.57,23.12,23.28,23.12
					C1667.02,990.62,1676.42,982.33,1676.42,969.9z"/>
				<path class="st2" d="M1711.02,969.42v-2.55c0-20.41,15.62-41.45,45.92-41.45c30.45,0,46.08,21.05,46.08,41.45
					c0,2.39,0.16,3.99-0.16,6.38h-67.44c1.75,11.16,9.41,17.7,21.68,17.86c9.88-0.16,16.74-4.62,19.93-12.44h24.87
					c-3.83,16.74-18.65,32.05-44.8,32.21C1726,1010.71,1711.02,989.35,1711.02,969.42z M1756.93,945.18
					c-10.2,0-17.38,4.62-20.25,12.91h40.66C1774.31,949.81,1767.3,945.18,1756.93,945.18z"/>
			</g>
		</g>
		<g>
			<path class="st0" d="M850.68,1105.36v-58.16h36.73v8.11h-28.03v17.36h23.45v7.62h-23.45v25.06H850.68z"/>
			<path class="st0" d="M930.73,1047.2h8.23l21.43,58.16h-9.16l-5.39-15.81h-22.05l-5.41,15.81h-9.24L930.73,1047.2z
				 M943.52,1082.75l-8.68-25.47l-8.72,25.47H943.52z"/>
			<path class="st0" d="M984.92,1075.79c0-3.55,0.59-7.03,1.79-10.44c1.19-3.41,2.94-6.52,5.24-9.34c2.3-2.81,5.11-5.05,8.42-6.72
				c3.31-1.66,7.07-2.5,11.26-2.5c4.97,0,9.26,1.19,12.89,3.56c3.62,2.38,6.31,5.42,8.07,9.13l-6.83,4.83
				c-1.04-2.35-2.34-4.2-3.92-5.57c-1.58-1.36-3.29-2.32-5.12-2.87c-1.84-0.54-3.64-0.82-5.4-0.82c-2.9,0-5.43,0.61-7.61,1.84
				c-2.17,1.23-4,2.85-5.47,4.87c-1.48,2.02-2.59,4.29-3.34,6.8c-0.75,2.51-1.13,5.03-1.13,7.54c0,2.78,0.44,5.47,1.32,8.07
				c0.88,2.59,2.11,4.89,3.69,6.88c1.58,1.99,3.46,3.56,5.63,4.71c2.17,1.15,4.55,1.72,7.14,1.72c1.76,0,3.6-0.33,5.51-0.98
				c1.91-0.66,3.69-1.68,5.32-3.07c1.63-1.39,2.91-3.24,3.84-5.53l7.22,4.34c-1.14,2.9-2.91,5.35-5.32,7.37
				c-2.41,2.02-5.1,3.55-8.07,4.59c-2.98,1.04-5.91,1.56-8.81,1.56c-3.88,0-7.43-0.86-10.64-2.58c-3.21-1.72-5.98-4.01-8.31-6.88
				c-2.33-2.87-4.14-6.09-5.43-9.67C985.57,1083.07,984.92,1079.45,984.92,1075.79z"/>
			<path class="st0" d="M1105.27,1055.31h-18.32v50.05h-8.77v-50.05h-18.4v-8.11h45.5V1055.31z"/>
			<path class="st0" d="M1157.36,1105.77c-3.99,0-7.58-0.82-10.79-2.46c-3.21-1.64-5.98-3.86-8.31-6.68
				c-2.33-2.81-4.13-5.98-5.4-9.5c-1.27-3.52-1.9-7.14-1.9-10.85c0-3.88,0.67-7.58,2.02-11.1c1.34-3.52,3.21-6.66,5.59-9.42
				c2.38-2.76,5.19-4.94,8.42-6.55c3.23-1.61,6.74-2.42,10.52-2.42c3.93,0,7.52,0.85,10.75,2.54c3.23,1.69,6,3.96,8.31,6.8
				c2.3,2.84,4.09,6.01,5.36,9.5c1.27,3.5,1.9,7.07,1.9,10.73c0,3.88-0.66,7.58-1.98,11.1c-1.32,3.52-3.17,6.66-5.55,9.42
				c-2.38,2.76-5.19,4.93-8.42,6.51C1164.65,1104.98,1161.14,1105.77,1157.36,1105.77z M1139.82,1076.28c0,2.73,0.41,5.38,1.24,7.94
				c0.83,2.57,2.01,4.85,3.53,6.84c1.53,1.99,3.38,3.56,5.55,4.71c2.17,1.15,4.61,1.72,7.3,1.72c2.79,0,5.28-0.6,7.45-1.8
				c2.17-1.2,4-2.83,5.47-4.87c1.47-2.05,2.6-4.34,3.38-6.88c0.78-2.54,1.17-5.09,1.17-7.66c0-2.73-0.4-5.36-1.2-7.9
				c-0.8-2.54-1.98-4.8-3.53-6.8c-1.55-1.99-3.4-3.56-5.55-4.71c-2.15-1.15-4.54-1.72-7.18-1.72c-2.79,0-5.28,0.6-7.45,1.8
				c-2.17,1.2-4.01,2.81-5.51,4.83c-1.5,2.02-2.65,4.29-3.46,6.8C1140.22,1071.09,1139.82,1073.66,1139.82,1076.28z"/>
			<path class="st0" d="M1216.14,1105.36v-58.16h23.99c2.49,0,4.76,0.55,6.83,1.64c2.07,1.09,3.87,2.54,5.4,4.34
				c1.53,1.8,2.72,3.82,3.57,6.06c0.85,2.24,1.28,4.53,1.28,6.88c0,2.57-0.44,5.02-1.32,7.37c-0.88,2.35-2.13,4.37-3.77,6.06
				c-1.63,1.69-3.53,2.92-5.71,3.69l12.97,22.11h-9.78l-11.96-20.23h-12.81v20.23H1216.14z M1224.84,1077.02h15.22
				c1.6,0,3.03-0.49,4.27-1.47c1.24-0.98,2.22-2.31,2.95-3.97c0.72-1.67,1.09-3.48,1.09-5.45c0-2.02-0.42-3.84-1.24-5.45
				c-0.83-1.61-1.9-2.91-3.22-3.89c-1.32-0.98-2.76-1.47-4.31-1.47h-14.75V1077.02z"/>
			<path class="st0" d="M1292.23,1047.2l15.22,28.91l15.37-28.91h9.55l-20.58,37.35v20.8h-8.7v-20.97l-20.42-37.19H1292.23z"/>
		</g>
	</g>
</g>
</svg>
