<?xml version="1.0" encoding="utf-8"?>
<!-- Generator: Adobe Illustrator 24.3.0, SVG Export Plug-In . SVG Version: 6.00 Build 0)  -->
<svg version="1.1" id="Layer_1" xmlns="http://www.w3.org/2000/svg" xmlns:xlink="http://www.w3.org/1999/xlink" x="0px" y="0px"
	 viewBox="0 0 2000 2000" style="enable-background:new 0 0 2000 2000;" xml:space="preserve">
<style type="text/css">
	.st0{fill:#FBB800;}
	.st1{fill:#FFFFFF;}
	.st2{fill:#1C1F24;}
</style>
<g>
	<g>
		<g>
			<path class="st0" d="M667.37,888.53c15.75-52.11,42.15-99.63,76.71-139.97c-57.9-49.67-133.07-79.7-215.14-79.7H196.95v153.27
				h331.98C584.81,822.13,634.76,848.05,667.37,888.53z"/>
		</g>
		<path class="st0" d="M899.3,1111.33c-14.91,49.47-39.71,95.8-73.15,135.93c-1.19,1.39-2.3,2.79-3.55,4.18
			c57.89,49.68,133.14,79.7,215.28,79.7h255.34v-153.27h-255.34C981.92,1177.87,931.9,1151.88,899.3,1111.33z"/>
		<path class="st0" d="M1803.05,668.88v153.29h-509.83v-0.03h-255.35c-55.95,0-105.97,25.98-138.58,66.55
			C874.72,919.17,860,957.93,860,1000c0,80.39-28.76,154.19-76.64,211.58c-11.9,14.38-25.08,27.76-39.29,39.86
			c-57.89,49.69-133.06,79.69-215.12,79.69H196.95V940.21h153.29v237.66h178.7c55.85,0,105.81-25.92,138.41-66.41
			c24.68-30.5,39.36-69.32,39.36-111.46c0-80.39,28.79-154.19,76.64-211.58c11.9-14.28,24.95-27.59,39.09-39.73
			c57.95-49.73,133.23-79.82,215.42-79.82H1803.05z"/>
		<polygon class="st0" points="1506.32,923.38 1353.05,923.38 1353.05,1331.14 1506.32,1331.14 1506.32,1076.65 1663.7,1076.65 
			1663.7,923.38 1506.32,923.38 		"/>
	</g>
</g>
</svg>
